<svg width="600" height="600" viewBox="0 0 600 600" fill="none" xmlns="http://www.w3.org/2000/svg">
<path d="M509.281 554.341C551.102 554.341 586.231 562.219 596.174 572.894C598.019 570.917 599 568.838 599 566.7C599 552.994 558.833 541.895 509.281 541.895C459.728 541.895 419.562 552.994 419.562 566.7C419.562 568.838 420.543 570.917 422.388 572.894C432.345 562.234 467.474 554.341 509.281 554.341Z" fill="url(#paint0_linear_37_2485)"/>
<path d="M509.28 591.491C551.101 591.491 586.23 583.584 596.173 572.88C586.215 562.219 551.086 554.327 509.28 554.327C467.473 554.327 432.329 562.205 422.387 572.88C432.344 583.584 467.473 591.491 509.28 591.491Z" fill="#00073A"/>
<path d="M554.822 278.96L558.586 301.247C558.586 301.247 588.092 303.898 588.414 297.953C588.78 291.261 578.369 287.79 570.242 284.437C561.529 280.849 554.822 278.96 554.822 278.96Z" fill="url(#paint1_linear_37_2485)"/>
<path d="M554.822 278.96L558.586 301.247C558.586 301.247 588.092 303.898 588.414 297.953C588.78 291.261 578.369 287.79 570.242 284.437C561.529 280.849 554.822 278.96 554.822 278.96Z" fill="url(#paint2_linear_37_2485)"/>
<path d="M513.425 328.206C506.66 322.451 494.228 319.962 490.67 319.273C487.082 317.384 493.115 311.703 498.899 306.475C479.438 313.079 476.7 324.545 476.7 324.545C483.729 327.722 501.579 326.317 507.187 337.621C509.443 342.175 503.937 350.097 502.267 355.75C502.194 356.013 502.121 356.233 502.033 356.482C502.546 357.565 503.366 358.341 504.625 358.693C509.779 360.099 510.921 354.183 514.319 346.393C517.438 339.247 519.312 333.184 513.425 328.191V328.206Z" fill="url(#paint3_linear_37_2485)"/>
<path d="M423.546 348.486C423.341 348.676 421.598 368.723 419.49 372.106C410.337 395.754 394.025 400.733 387.538 411.232C387.113 423.694 392.634 430.181 392.81 447.152C392.605 450.579 391.77 453.317 390.613 455.426C392.165 459.013 397.261 458.852 400.395 454.972C402.415 452.482 403.894 445.951 403.851 434.823C403.851 431.938 402.723 422.639 402.459 420.37C401.068 408.099 397.715 407.147 401.508 404.072C421.042 388.301 429.74 378.637 430.706 354.563C430.882 350.185 430.721 343.756 430.721 343.756C428.539 345.104 424.351 347.681 423.531 348.471L423.546 348.486Z" fill="url(#paint4_linear_37_2485)"/>
<path d="M572.438 269.179C563.257 263.98 553.944 260.73 546.549 257.801C414.877 209.976 350.637 344.606 324.835 375.708C301.904 403.355 259.38 419.814 218.159 394.276C180.409 370.891 194.262 330.973 207.748 299.549C215.07 282.489 226.433 263.951 236.39 241.459C262.777 181.89 265.15 146.425 258.062 119.847C243.609 65.6671 202.081 38.5771 202.081 38.5771C202.081 38.5771 207.133 49.5156 209.901 60.2491C211.936 68.1418 211.687 77.777 210.472 75.7563C201.466 60.8494 188.624 43.1897 166.952 29.5422C121.514 0.929333 82.27 9.07097 82.27 9.07097C82.27 9.07097 117.809 33.1591 116.608 82.5214C115.247 138.195 35.3384 207.794 22.3938 295.58C22.1009 297.572 18.1912 290.119 12.8903 285.857C7.01837 281.142 1 279.985 1 279.985C1 279.985 7.1648 295.024 7.47231 314.119C8.01411 348.223 16.844 379.53 45.7205 415.172C69.4718 444.488 112.098 459.848 112.098 459.848C112.098 459.848 106.768 461.064 101.145 460.61C91.876 460.8 87.9369 459.775 87.9369 459.775C87.9369 459.775 115.232 480.642 170.964 485.079C194.496 486.353 235.043 490.131 280.393 464.153C344.296 427.575 355.63 385.505 366.481 364.082C368.838 359.41 370.288 356.921 371.987 357.595C375.867 359.117 374.52 374.39 374.74 382.298C374.871 386.984 371.664 392.768 368.048 400.924C367.052 403.179 366.876 405.698 367.462 408.084C369.527 416.402 374.183 425.041 375.691 430.65C377.302 436.668 379.513 443.17 379.059 447.621C378.503 453.083 378.591 457.52 379.586 459.394C381.754 463.451 391.989 460.566 392.809 447.153C392.634 430.181 387.113 423.694 387.538 411.233C394.025 400.719 410.323 395.755 419.489 372.106C421.598 368.709 423.355 348.677 423.546 348.486C425.303 346.978 429.959 344.386 435.597 340.638C444.998 334.37 448.849 330.724 448.849 330.724C448.849 330.724 451.353 337.958 455.102 342.849C455.995 344.02 457.21 344.914 458.601 345.382C466.113 347.901 489.352 343.083 490.773 345.851C491.944 348.413 488.825 349.438 489.191 355.94C488.737 360.963 492.12 363.979 494.243 364.784C497.538 366.029 499.749 364.155 502.238 355.794C503.922 350.141 509.428 342.219 507.158 337.665C501.55 326.346 483.7 327.752 476.671 324.589C476.671 324.589 479.995 310.678 505.284 304.674C514.963 303.107 519.591 302.536 521.333 314.221C523.149 326.346 524.847 332.496 526.107 336.362C527.381 340.316 530.427 346.993 536.079 353.582C538.554 356.467 543.049 357.829 546.066 356.54C549.756 354.973 549.082 342.541 551.996 336.464C556.535 327.005 563.271 328.455 567.84 311.19C570.359 301.672 569.627 294.804 569.099 292.989C568.074 289.474 588.37 294.043 588.839 289.152C589.307 284.261 583.274 275.329 572.409 269.179H572.438Z" fill="url(#paint5_linear_37_2485)"/>
<path d="M366.496 364.082C368.854 359.411 370.303 356.921 372.002 357.595C375.882 359.118 374.535 374.391 374.755 382.298C374.887 386.984 371.68 392.768 368.063 400.924C367.067 403.179 366.891 405.698 367.477 408.085C369.542 416.402 374.198 425.042 375.707 430.65C377.317 436.668 379.529 443.17 379.075 447.622C378.518 453.083 378.606 457.52 379.602 459.395C381.769 463.451 392.005 460.566 392.825 447.153C392.649 430.181 387.128 423.694 387.553 411.233C394.04 400.719 410.338 395.755 419.505 372.106C421.613 368.709 423.37 348.677 423.561 348.487C425.318 346.979 429.975 344.387 435.612 340.638C445.013 334.371 448.864 330.725 448.864 330.725C448.864 330.725 451.368 337.958 455.117 342.849C456.01 344.021 457.226 344.914 458.617 345.382C466.129 347.901 489.368 343.083 490.788 345.851C491.959 348.414 488.84 349.439 489.206 355.94C488.753 360.963 492.135 363.979 494.258 364.785C497.553 366.029 499.764 364.155 502.254 355.794C503.938 350.142 509.443 342.22 507.174 337.665C501.565 326.346 483.715 327.752 476.686 324.589C476.686 324.589 480.01 310.678 505.299 304.674C514.979 303.107 519.606 302.536 521.348 314.222C523.164 326.346 524.863 332.496 526.122 336.362C527.396 340.316 530.442 346.993 536.094 353.583C538.569 356.467 543.064 357.829 546.081 356.541C549.771 354.974 549.097 342.542 552.011 336.465C556.551 327.005 563.287 328.455 567.855 311.19C570.374 301.672 569.642 294.805 569.115 292.989C568.09 289.475 588.385 294.043 588.854 289.152C589.322 284.262 583.289 275.329 572.424 269.179C563.243 263.981 553.93 260.73 546.535 257.801C414.863 209.976 350.623 344.606 324.821 375.709C324.294 376.338 323.738 376.968 323.196 377.598L322.332 433.213C350.491 405.962 358.633 379.618 366.481 364.097L366.496 364.082Z" fill="url(#paint6_linear_37_2485)"/>
<path d="M545.361 295.434C543.589 276.266 534.7 271.756 532.592 274.099C531.215 275.622 535.11 279.708 533.514 279.312C532.387 279.034 528.653 272.064 526.383 274.363C524.128 276.647 528.448 280.513 527.247 280.733C526.105 280.952 523.821 276.911 521.902 278.785C519.149 281.465 524.875 285.653 523.762 291.539C521.361 304.059 502.529 291.862 486.056 312.904C490.331 309.814 496.467 306.754 505.311 304.66C514.991 303.093 519.618 302.522 521.361 314.207C522.693 323.139 524.509 334.561 528.653 342.395C530.937 335.645 535.682 333.331 536.135 332.745C536.018 327.884 537.131 321.426 540.441 314.559C543.091 309.053 545.99 302.302 545.361 295.449V295.434Z" fill="url(#paint7_linear_37_2485)"/>
<path d="M541.247 344.768C538.699 342.396 537.571 340.185 536.985 338.032C536.502 336.246 536.385 334.503 536.151 332.731C536.034 331.882 530.938 335.631 528.668 342.381C530.176 345.383 532.256 348.795 535.052 352.251C535.404 352.69 535.741 353.129 536.121 353.569C538.596 356.453 543.092 357.815 546.108 356.527C547.748 355.838 548.524 352.997 549.139 349.527C546.24 348.004 542.96 346.335 541.261 344.768H541.247Z" fill="#FFC635"/>
<path d="M546.094 356.526C546.899 356.189 547.499 355.325 547.968 354.125C547.177 353.393 545.889 352.968 543.692 353.393C541.803 353.759 540.837 355.252 540.427 356.424C542.389 357.112 544.454 357.214 546.108 356.526H546.094Z" fill="#00073A"/>
<path d="M567.136 306.49L568.835 306.783C570.138 299.579 569.552 294.497 569.113 292.989C568.088 289.475 588.384 294.043 588.852 289.153C589.321 284.262 583.288 275.329 572.423 269.179C566.448 265.797 560.43 263.249 554.895 261.067C557.53 266.558 561.44 275.915 563.373 286.385C565.218 296.46 567.122 306.49 567.122 306.49H567.136Z" fill="url(#paint8_linear_37_2485)"/>
<path d="M447.397 314.91C447.397 314.91 438.289 318.732 429.752 324.603C421.215 330.475 424.012 333.638 423.543 348.487C425.301 346.978 429.957 344.387 435.595 340.638C444.996 334.371 448.847 330.724 448.847 330.724L448.027 320.43L447.397 314.91Z" fill="url(#paint9_radial_37_2485)"/>
<path d="M507.172 337.636C501.593 326.36 483.875 327.708 476.787 324.589C474.283 324.545 471.56 324.032 468.704 322.421C468.704 322.421 469.861 327.708 475.894 332.452C476.041 332.569 470.374 334.37 460.05 323.739C458.513 322.421 460.387 329.802 467.694 338.441C468.206 339.041 458.454 336.669 455.569 331.661C456.096 339.92 459.494 344.02 462.247 346.012C471.779 346.758 489.542 343.434 490.786 345.836C491.958 348.398 488.839 349.424 489.205 355.925C488.751 360.948 492.133 363.964 494.257 364.77C497.552 366.014 499.763 364.14 502.252 355.779C503.936 350.126 509.442 342.204 507.172 337.65V337.636Z" fill="url(#paint10_linear_37_2485)"/>
<path d="M393.569 397.175C390.713 400.382 385.193 404.512 385.281 403.941C386.789 395.213 388.546 389.224 387.755 387.775C387.755 387.775 384.358 392.329 382.674 395.316C380.477 399.182 377.359 402.491 377.359 402.491C377.359 402.491 378.208 397.717 378.398 394.056C378.706 388.038 379.584 382.693 379.584 382.693L371.238 393.925C370.271 396.063 369.188 398.376 368.06 400.939C367.064 403.194 366.889 405.713 367.474 408.099C369.539 416.417 374.196 425.056 375.704 430.665C377.315 436.683 379.526 443.185 379.072 447.636C378.515 453.098 378.603 457.535 379.599 459.409C381.766 463.465 392.002 460.581 392.822 447.168C392.646 430.196 387.126 423.709 387.55 411.248C390.406 406.606 395.179 403.047 400.407 398.493C401.139 394.672 401.783 390 401.783 390C401.783 390 395.97 394.481 393.569 397.19V397.175Z" fill="url(#paint11_linear_37_2485)"/>
<path d="M548.802 318.335C544.497 318.394 544.629 320.473 544.424 321.923C544.028 324.603 544.995 325.774 547.806 325.672C552.843 325.496 554.747 322.831 554.088 321.03C553.619 319.741 552.624 318.277 548.817 318.321L548.802 318.335Z" fill="url(#paint12_linear_37_2485)"/>
<path d="M549.719 324.704C550.632 324.649 551.343 324.146 551.309 323.581C551.275 323.016 550.508 322.603 549.596 322.658C548.684 322.713 547.972 323.215 548.006 323.78C548.04 324.346 548.807 324.759 549.719 324.704Z" fill="white"/>
<path d="M207.748 299.549C215.07 282.489 226.433 263.951 236.39 241.459C262.777 181.89 265.15 146.425 258.062 119.847C243.609 65.6671 202.081 38.5771 202.081 38.5771C202.081 38.5771 207.133 49.5156 209.901 60.2491C211.936 68.1418 211.687 77.777 210.472 75.7563C201.466 60.8494 188.624 43.1897 166.952 29.5422C121.514 0.929333 82.27 9.07097 82.27 9.07097C82.27 9.07097 117.809 33.1591 116.608 82.5214C115.247 138.195 35.3384 207.794 22.3938 295.58C22.1009 297.572 18.1912 290.119 12.8903 285.857C7.01837 281.142 1 279.985 1 279.985C1 279.985 7.1648 295.024 7.47231 314.119C7.61874 323.578 8.42411 332.818 10.0934 342L200.558 377.304C186.31 354.256 197.132 324.281 207.748 299.549Z" fill="url(#paint13_radial_37_2485)"/>
<path opacity="0.7" d="M134.605 37.9331C145.09 49.472 152.528 56.6472 162.676 87.0026C174.508 122.381 164.712 159.941 143.596 180.397C168.665 167.028 184.744 135.808 181.317 101.895C179.34 82.3607 174.947 73.7944 165.18 57.7893C172.238 63.4124 175.182 66.4435 181.625 75.8591C188.287 85.5822 196.121 98.8197 200.47 110.256C194.965 91.6884 196.634 71.8615 185.915 56.8961C174.918 41.5354 166.352 34.6677 146.905 27.1411C126.068 14.6504 97.9385 11.8828 97.9385 11.8828C97.9385 11.8828 119.801 23.6413 134.62 37.9331H134.605Z" fill="url(#paint14_radial_37_2485)"/>
<path opacity="0.5" d="M218.159 394.276C180.409 370.891 194.262 330.974 207.748 299.549C215.07 282.49 226.433 263.951 236.39 241.459C254.182 201.293 261.049 172.094 261.459 149.178C256.993 162.913 249.071 180.236 242.409 193.81C220.737 237.96 205.639 254.829 192.534 276.266C183.704 290.719 168.577 313.021 166.366 336.099C164.55 355.135 165.854 371.638 165.854 371.638C165.854 371.638 160.45 369.632 152.426 362.413C146.847 357.405 141.502 346.51 141.502 346.51C141.502 346.51 140.067 400.397 192.431 420.868C218.467 431.045 254.299 429.171 280.13 410.838C285.313 407.192 289.428 403.75 292.811 400.514C270.977 410.062 244.136 410.398 218.145 394.291L218.159 394.276Z" fill="url(#paint15_linear_37_2485)"/>
<path opacity="0.3" d="M243.098 166.793C243.098 166.793 245.924 157.934 245.602 145.561C245.28 133.187 241.077 119.071 241.077 119.071L237.636 135.589C237.636 135.589 236.157 124.094 232.159 108.513C230.607 102.48 226.917 93.8115 226.917 93.8115C226.917 93.8115 229.128 113.917 228.001 128.633C226.873 143.35 225.877 155.694 222.671 164.743C219.464 173.778 212.069 181.891 218.951 190.867C225.833 199.843 238.602 188.451 243.112 166.793H243.098Z" fill="url(#paint16_linear_37_2485)"/>
<path d="M62.4731 220.065C73.5287 200.971 75.4763 200.619 85.9315 184.043C89.3434 177.19 95.4057 170.981 102.405 157.158C107.779 146.513 112.245 137.492 116.668 125.646C120.094 116.465 127.064 88.2617 127.064 88.2617C127.064 88.2617 131.238 106.288 125.585 130.097C119.304 156.543 108.819 181.583 108.819 181.583C108.819 181.583 120.153 167.862 125.249 160.468C131.677 151.125 136.583 143.086 136.583 143.086C136.583 143.086 134.371 167.76 117.019 198.672C98.0854 232.41 88.5966 242.587 77.3067 265.313C73.0309 273.66 69.1065 280.645 65.5042 289.108C63.542 288.625 62.6781 282.182 62.3266 280.776C59.398 271.317 57.6993 272.108 54.4925 262.707C48.9134 250.113 53.4236 235.558 62.4877 220.095L62.4731 220.065Z" fill="url(#paint17_radial_37_2485)"/>
<path opacity="0.48" d="M207.748 299.548C215.07 282.489 226.433 263.951 236.391 241.459C262.778 181.89 265.15 146.424 258.063 119.847C243.61 65.6667 202.081 38.5767 202.081 38.5767C202.081 38.5767 207.133 49.5005 209.901 60.2487C211.936 68.1414 211.687 77.7766 210.472 75.7558C204.615 66.0474 197.103 55.1821 186.604 45.005C194.848 57.6568 200.837 71.0846 202.374 78.6113C205.684 94.8653 206.343 104.735 204.205 119.671C201.393 139.293 193.955 152.369 193.955 152.369C193.955 152.369 197.088 133.406 189.269 112.027C185.52 101.777 177.671 91.1752 177.671 91.1752C177.671 91.1752 181.918 111.602 177.7 140.508C172.868 173.617 164.902 193.546 156.424 209.712C144.944 231.604 132.087 252.88 132.087 252.88C132.087 252.88 139.76 231.223 140.668 206.535C139.174 207.018 131.032 224.59 113.578 246.877C97.3969 267.524 92.5061 278.184 85.3748 295.243C71.8884 327.502 69.1647 338.558 71.4345 359.454C74.0263 383.278 82.5194 390.776 88.2888 402.197C99.447 424.279 149.659 419.491 161.212 409.446C173.849 398.815 185.154 383.527 195.492 365.589C189.81 344.664 198.86 320.269 207.748 299.548Z" fill="url(#paint18_radial_37_2485)"/>
<path opacity="0.5" d="M99.6074 319.01C107.222 349.409 129.114 431.411 112.362 434.984C95.6098 438.557 74.4356 419.814 66.2061 411.994C57.9766 404.175 41.2394 386.427 35.9093 363.364C30.008 337.885 32.1459 322.597 32.1459 322.597L43.5091 342.878C43.5091 342.878 40.3608 331.427 42.9673 308.013C45.5738 284.584 53.364 266.426 53.364 266.426C62.7943 245.003 91.9929 288.61 99.6074 319.01Z" fill="url(#paint19_radial_37_2485)"/>
<defs>
<linearGradient id="paint0_linear_37_2485" x1="419.562" y1="557.387" x2="599" y2="557.387" gradientUnits="userSpaceOnUse">
<stop stop-color="#E752FF"/>
<stop offset="0.11" stop-color="#DD4FFF"/>
<stop offset="0.28" stop-color="#C347FF"/>
<stop offset="0.51" stop-color="#983BFF"/>
<stop offset="0.77" stop-color="#5E2AFF"/>
<stop offset="1" stop-color="#271AFF"/>
</linearGradient>
<linearGradient id="paint1_linear_37_2485" x1="596.091" y1="289.12" x2="529.735" y2="291.428" gradientUnits="userSpaceOnUse">
<stop stop-color="#FF6600"/>
<stop offset="0.26" stop-color="#FFB029"/>
<stop offset="0.34" stop-color="#FFA623"/>
<stop offset="0.47" stop-color="#FF8D15"/>
<stop offset="0.63" stop-color="#FF6600"/>
<stop offset="1" stop-color="#FB2872"/>
</linearGradient>
<linearGradient id="paint2_linear_37_2485" x1="584.797" y1="291.231" x2="528.831" y2="289.152" gradientUnits="userSpaceOnUse">
<stop stop-color="#FF6600"/>
<stop offset="1" stop-color="#FB2872"/>
</linearGradient>
<linearGradient id="paint3_linear_37_2485" x1="497.04" y1="323.286" x2="496.044" y2="415.992" gradientUnits="userSpaceOnUse">
<stop offset="0.01" stop-color="#BE0449"/>
<stop offset="0.28" stop-color="#D20F56"/>
<stop offset="0.74" stop-color="#EF216A"/>
<stop offset="1" stop-color="#FB2872"/>
</linearGradient>
<linearGradient id="paint4_linear_37_2485" x1="264.71" y1="395.066" x2="472.908" y2="403.266" gradientUnits="userSpaceOnUse">
<stop stop-color="#00073A" stop-opacity="0.5"/>
<stop offset="0.76" stop-color="#BE0449"/>
<stop offset="0.83" stop-color="#D20F56"/>
<stop offset="0.94" stop-color="#EF216A"/>
<stop offset="1" stop-color="#FB2872"/>
</linearGradient>
<linearGradient id="paint5_linear_37_2485" x1="142.864" y1="-62.3294" x2="333.694" y2="401.729" gradientUnits="userSpaceOnUse">
<stop stop-color="#FFEB49"/>
<stop offset="0.32" stop-color="#FF9B1D"/>
<stop offset="0.56" stop-color="#FF6600"/>
<stop offset="0.74" stop-color="#FD4835"/>
<stop offset="0.91" stop-color="#FB3161"/>
<stop offset="1" stop-color="#FB2872"/>
</linearGradient>
<linearGradient id="paint6_linear_37_2485" x1="503.689" y1="183.458" x2="422.507" y2="438.982" gradientUnits="userSpaceOnUse">
<stop stop-color="#FFEB49"/>
<stop offset="0.06" stop-color="#FFE143"/>
<stop offset="0.17" stop-color="#FFC835"/>
<stop offset="0.3" stop-color="#FF9E1F"/>
<stop offset="0.46" stop-color="#FF6600"/>
<stop offset="1" stop-color="#FB2872"/>
</linearGradient>
<linearGradient id="paint7_linear_37_2485" x1="554.645" y1="309.99" x2="483.654" y2="303.781" gradientUnits="userSpaceOnUse">
<stop stop-color="#FFEB49"/>
<stop offset="0.08" stop-color="#FFE646" stop-opacity="0.97"/>
<stop offset="0.2" stop-color="#FFDA3F" stop-opacity="0.88"/>
<stop offset="0.36" stop-color="#FFC635" stop-opacity="0.73"/>
<stop offset="0.54" stop-color="#FFAB26" stop-opacity="0.52"/>
<stop offset="0.74" stop-color="#FF8813" stop-opacity="0.26"/>
<stop offset="0.93" stop-color="#FF6600" stop-opacity="0"/>
</linearGradient>
<linearGradient id="paint8_linear_37_2485" x1="562.904" y1="283.793" x2="603.159" y2="278.99" gradientUnits="userSpaceOnUse">
<stop stop-color="#FF6600" stop-opacity="0"/>
<stop offset="0.19" stop-color="#FF6600" stop-opacity="0.31"/>
<stop offset="0.58" stop-color="#FF6600"/>
<stop offset="0.62" stop-color="#FE5B12"/>
<stop offset="0.74" stop-color="#FC453B"/>
<stop offset="0.84" stop-color="#FB3559"/>
<stop offset="0.93" stop-color="#FB2B6B"/>
<stop offset="1" stop-color="#FB2872"/>
</linearGradient>
<radialGradient id="paint9_radial_37_2485" cx="0" cy="0" r="1" gradientUnits="userSpaceOnUse" gradientTransform="translate(421.467 308.156) rotate(66.25) scale(42.1579 34.991)">
<stop offset="0.68" stop-color="#D81F60" stop-opacity="0"/>
<stop offset="0.7" stop-color="#D81F60" stop-opacity="0.05"/>
<stop offset="0.74" stop-color="#D81F60" stop-opacity="0.22"/>
<stop offset="0.78" stop-color="#D81F60" stop-opacity="0.36"/>
<stop offset="0.83" stop-color="#D81F60" stop-opacity="0.47"/>
<stop offset="0.87" stop-color="#D81F60" stop-opacity="0.54"/>
<stop offset="0.93" stop-color="#D81F60" stop-opacity="0.59"/>
<stop offset="1" stop-color="#D81F60" stop-opacity="0.6"/>
</radialGradient>
<linearGradient id="paint10_linear_37_2485" x1="470.857" y1="305.552" x2="494.184" y2="373.336" gradientUnits="userSpaceOnUse">
<stop stop-color="#FB2872" stop-opacity="0"/>
<stop offset="0.27" stop-color="#F0256C" stop-opacity="0.3"/>
<stop offset="0.62" stop-color="#E32165" stop-opacity="0.67"/>
<stop offset="0.88" stop-color="#DB1F61" stop-opacity="0.91"/>
<stop offset="1" stop-color="#D81F60"/>
</linearGradient>
<linearGradient id="paint11_linear_37_2485" x1="389.835" y1="358.986" x2="376.685" y2="452.6" gradientUnits="userSpaceOnUse">
<stop offset="0.03" stop-color="#FB2872" stop-opacity="0"/>
<stop offset="0.18" stop-color="#F0256C" stop-opacity="0.3"/>
<stop offset="0.37" stop-color="#E32165" stop-opacity="0.67"/>
<stop offset="0.51" stop-color="#DB1F61" stop-opacity="0.91"/>
<stop offset="0.58" stop-color="#D81F60"/>
</linearGradient>
<linearGradient id="paint12_linear_37_2485" x1="554.588" y1="326.712" x2="546.038" y2="319.512" gradientUnits="userSpaceOnUse">
<stop offset="0.16" stop-color="#A030B9"/>
<stop offset="0.88" stop-color="#00073A"/>
</linearGradient>
<radialGradient id="paint13_radial_37_2485" cx="0" cy="0" r="1" gradientUnits="userSpaceOnUse" gradientTransform="translate(67.9196 -13.0403) scale(296.511 296.511)">
<stop offset="0.28" stop-color="#FFEB49" stop-opacity="0.8"/>
<stop offset="1" stop-color="#FFEB49" stop-opacity="0"/>
</radialGradient>
<radialGradient id="paint14_radial_37_2485" cx="0" cy="0" r="1" gradientUnits="userSpaceOnUse" gradientTransform="translate(98.3186 -32.6637) rotate(157.63) scale(125.764 189.322)">
<stop stop-color="#FFEB49" stop-opacity="0.8"/>
<stop offset="1" stop-color="#FFEB49" stop-opacity="0"/>
</radialGradient>
<linearGradient id="paint15_linear_37_2485" x1="90.0456" y1="266.953" x2="245.864" y2="288.86" gradientUnits="userSpaceOnUse">
<stop stop-color="#FFEB49" stop-opacity="0.8"/>
<stop offset="0.07" stop-color="#FFEB49" stop-opacity="0.72"/>
<stop offset="0.25" stop-color="#FFEB49" stop-opacity="0.5"/>
<stop offset="0.42" stop-color="#FFEB49" stop-opacity="0.32"/>
<stop offset="0.59" stop-color="#FFEB49" stop-opacity="0.18"/>
<stop offset="0.75" stop-color="#FFEB49" stop-opacity="0.08"/>
<stop offset="0.89" stop-color="#FFEB49" stop-opacity="0.02"/>
<stop offset="1" stop-color="#FFEB49" stop-opacity="0"/>
</linearGradient>
<linearGradient id="paint16_linear_37_2485" x1="234.043" y1="99.0762" x2="227.335" y2="178.749" gradientUnits="userSpaceOnUse">
<stop offset="0.51" stop-color="#FFEB49"/>
<stop offset="0.56" stop-color="#FFEB49" stop-opacity="0.96"/>
<stop offset="0.63" stop-color="#FFEB49" stop-opacity="0.84"/>
<stop offset="0.73" stop-color="#FFEB49" stop-opacity="0.66"/>
<stop offset="0.84" stop-color="#FFEB49" stop-opacity="0.4"/>
<stop offset="0.97" stop-color="#FFEB49" stop-opacity="0.07"/>
<stop offset="1" stop-color="#FFEB49" stop-opacity="0"/>
</linearGradient>
<radialGradient id="paint17_radial_37_2485" cx="0" cy="0" r="1" gradientUnits="userSpaceOnUse" gradientTransform="translate(195.564 -64.8102) rotate(-79.38) scale(267.27 300.304)">
<stop stop-color="#FFEB49" stop-opacity="0.8"/>
<stop offset="1" stop-color="#FFEB49" stop-opacity="0"/>
</radialGradient>
<radialGradient id="paint18_radial_37_2485" cx="0" cy="0" r="1" gradientUnits="userSpaceOnUse" gradientTransform="translate(48.2249 139.981) scale(249.389 249.389)">
<stop offset="0.07" stop-color="#FB2872"/>
<stop offset="0.09" stop-color="#FB2872" stop-opacity="0.95"/>
<stop offset="0.15" stop-color="#FB2872" stop-opacity="0.75"/>
<stop offset="0.22" stop-color="#FB2872" stop-opacity="0.57"/>
<stop offset="0.3" stop-color="#FB2872" stop-opacity="0.42"/>
<stop offset="0.38" stop-color="#FB2872" stop-opacity="0.29"/>
<stop offset="0.46" stop-color="#FB2872" stop-opacity="0.18"/>
<stop offset="0.56" stop-color="#FB2872" stop-opacity="0.1"/>
<stop offset="0.66" stop-color="#FB2872" stop-opacity="0.04"/>
<stop offset="0.79" stop-color="#FB2872" stop-opacity="0.01"/>
<stop offset="1" stop-color="#FB2872" stop-opacity="0"/>
</radialGradient>
<radialGradient id="paint19_radial_37_2485" cx="0" cy="0" r="1" gradientUnits="userSpaceOnUse" gradientTransform="translate(27.9768 361.43) rotate(-0.529999) scale(64.2399 108.565)">
<stop stop-color="#FFEB49" stop-opacity="0.6"/>
<stop offset="0.13" stop-color="#FFEB49" stop-opacity="0.56"/>
<stop offset="0.35" stop-color="#FFEB49" stop-opacity="0.44"/>
<stop offset="0.65" stop-color="#FFEB49" stop-opacity="0.26"/>
<stop offset="1" stop-color="#FFEB49" stop-opacity="0"/>
</radialGradient>
</defs>
</svg>
