<?xml version="1.0" encoding="UTF-8"?><svg id="Layer_2" xmlns="http://www.w3.org/2000/svg" xmlns:xlink="http://www.w3.org/1999/xlink" viewBox="0 0 1279.71 1227.17"><defs><style>.cls-1{fill:url(#linear-gradient-15);}.cls-2{fill:url(#linear-gradient-13);}.cls-3{fill:url(#linear-gradient-2);}.cls-4{fill:url(#linear-gradient-10);}.cls-5{fill:url(#linear-gradient-12);}.cls-6{fill:none;}.cls-7{fill:url(#linear-gradient-4);}.cls-8{fill:url(#radial-gradient);}.cls-9{fill:url(#linear-gradient-3);}.cls-10{clip-path:url(#clippath-1);}.cls-11{fill:url(#linear-gradient-5);}.cls-12{fill:url(#linear-gradient-8);}.cls-13{clip-path:url(#clippath-3);}.cls-14{fill:url(#radial-gradient-2);}.cls-15{fill:url(#linear-gradient-7);}.cls-16{fill:url(#linear-gradient-11);}.cls-17{fill:url(#linear-gradient-6);}.cls-18{clip-path:url(#clippath-2);}.cls-19{fill:url(#linear-gradient-16);}.cls-20{fill:url(#linear-gradient);}.cls-21{fill:url(#linear-gradient-9);opacity:.61;}.cls-22{clip-path:url(#clippath);}.cls-23{fill:url(#linear-gradient-14);isolation:isolate;opacity:.6;}</style><linearGradient id="linear-gradient" x1="317.84" y1="-5.26" x2="-165.75" y2="679" gradientUnits="userSpaceOnUse"><stop offset="0" stop-color="#271aff"/><stop offset=".11" stop-color="#2d1bff"/><stop offset=".26" stop-color="#3f21ff"/><stop offset=".44" stop-color="#5d29ff"/><stop offset=".63" stop-color="#8635ff"/><stop offset=".84" stop-color="#ba45ff"/><stop offset=".99" stop-color="#e752ff"/></linearGradient><linearGradient id="linear-gradient-2" x1="262.06" y1="854.36" x2="294.15" y2="-221.43" gradientUnits="userSpaceOnUse"><stop offset="0" stop-color="#271aff"/><stop offset=".02" stop-color="#2d1bff"/><stop offset=".15" stop-color="#5e2aff"/><stop offset=".28" stop-color="#8836ff"/><stop offset=".42" stop-color="#aa40ff"/><stop offset=".56" stop-color="#c548ff"/><stop offset=".7" stop-color="#d74dff"/><stop offset=".84" stop-color="#e350ff"/><stop offset="1" stop-color="#e752ff"/></linearGradient><linearGradient id="linear-gradient-3" x1="289.99" y1="710.17" x2="300.45" y2="335.42" gradientUnits="userSpaceOnUse"><stop offset="0" stop-color="#271aff"/><stop offset=".99" stop-color="#e752ff"/></linearGradient><clipPath id="clippath"><path class="cls-6" d="M433.5,155.55s53.01,110.14,49.71,259.84c-3.39,153.64-51.97,284.69-51.97,284.69l-311.05-1.13.38-546.79,312.94,3.39Z"/></clipPath><linearGradient id="linear-gradient-4" x1="317.44" y1="505.22" x2="310.09" y2="287.13" gradientUnits="userSpaceOnUse"><stop offset="0" stop-color="#010766"/><stop offset="1" stop-color="#3915b5"/></linearGradient><linearGradient id="linear-gradient-5" x1="293.36" y1="122.72" x2="285.69" y2="705.14" gradientUnits="userSpaceOnUse"><stop offset="0" stop-color="#271aff"/><stop offset=".07" stop-color="#4522ff"/><stop offset=".17" stop-color="#6f2fff"/><stop offset=".29" stop-color="#9439ff"/><stop offset=".4" stop-color="#b242ff"/><stop offset=".53" stop-color="#c949ff"/><stop offset=".66" stop-color="#da4eff"/><stop offset=".8" stop-color="#e351ff"/><stop offset=".99" stop-color="#e752ff"/></linearGradient><linearGradient id="linear-gradient-6" x1="228.62" y1="426.24" x2="69.56" y2="425.24" gradientUnits="userSpaceOnUse"><stop offset=".11" stop-color="#271aff"/><stop offset=".99" stop-color="#e752ff"/></linearGradient><linearGradient id="linear-gradient-7" x1="130.77" y1="555" x2="141.77" y2="356.76" xlink:href="#linear-gradient-4"/><linearGradient id="linear-gradient-8" x1="308.49" y1="146.19" x2="268.85" y2="987.58" gradientUnits="userSpaceOnUse"><stop offset=".15" stop-color="#e752ff" stop-opacity="0"/><stop offset=".22" stop-color="#d14bff" stop-opacity=".11"/><stop offset=".37" stop-color="#9b3bff" stop-opacity=".39"/><stop offset=".6" stop-color="#4522ff" stop-opacity=".84"/><stop offset=".68" stop-color="#271aff"/></linearGradient><linearGradient id="linear-gradient-9" x1="295.13" y1="177.61" x2="304.04" y2="673.91" gradientUnits="userSpaceOnUse"><stop offset="0" stop-color="#3915b5"/><stop offset=".22" stop-color="#3614b0"/><stop offset=".45" stop-color="#2d12a4"/><stop offset=".68" stop-color="#1e0e8f"/><stop offset=".91" stop-color="#0a0972"/><stop offset="1" stop-color="#010766"/></linearGradient><linearGradient id="linear-gradient-10" x1="437.36" y1="778.36" x2="564.05" y2="656.37" gradientUnits="userSpaceOnUse"><stop offset="0" stop-color="#271aff"/><stop offset=".08" stop-color="#4e25ff"/><stop offset=".18" stop-color="#7731ff"/><stop offset=".28" stop-color="#993bff"/><stop offset=".39" stop-color="#b543ff"/><stop offset=".51" stop-color="#cb4aff"/><stop offset=".64" stop-color="#db4eff"/><stop offset=".79" stop-color="#e451ff"/><stop offset="1" stop-color="#e752ff"/></linearGradient><radialGradient id="radial-gradient" cx="786.82" cy="904.45" fx="786.82" fy="904.45" r="451.21" gradientUnits="userSpaceOnUse"><stop offset=".01" stop-color="#3915b5"/><stop offset=".15" stop-color="#3514b0"/><stop offset=".31" stop-color="#2b11a1"/><stop offset=".49" stop-color="#1a0d89"/><stop offset=".67" stop-color="#020768"/><stop offset=".68" stop-color="#010766"/></radialGradient><radialGradient id="radial-gradient-2" cx="786.82" cy="904.45" fx="786.82" fy="904.45" r="451.21" gradientUnits="userSpaceOnUse"><stop offset=".01" stop-color="#e752ff"/><stop offset=".08" stop-color="#e752ff" stop-opacity=".98"/><stop offset=".17" stop-color="#e752ff" stop-opacity=".92"/><stop offset=".26" stop-color="#e752ff" stop-opacity=".83"/><stop offset=".35" stop-color="#e752ff" stop-opacity=".7"/><stop offset=".45" stop-color="#e752ff" stop-opacity=".53"/><stop offset=".55" stop-color="#e752ff" stop-opacity=".32"/><stop offset=".65" stop-color="#e752ff" stop-opacity=".08"/><stop offset=".68" stop-color="#e752ff" stop-opacity="0"/></radialGradient><linearGradient id="linear-gradient-11" x1="984.3" y1="-72.99" x2="948.48" y2="1210.38" gradientUnits="userSpaceOnUse"><stop offset="0" stop-color="#f16622"/><stop offset=".23" stop-color="#faae2c"/><stop offset=".75" stop-color="#f16622"/><stop offset="1" stop-color="#ed3173"/></linearGradient><clipPath id="clippath-1"><path class="cls-6" d="M879.19,448.62c171.87,202.06,186.46,320.62,190.99,415.77,4.65,97.55-9.29,146.32-34.84,211.35-17.09,43.5-67.61,159.91,71.46,150.94,72-4.65,125.42-69.68,148.65-195.1,23.23-125.42,25.03-420.39,23.48-609.29-.78-95.17-51.23-277.25-95.77-419.87h-516.14c28.4,136.07,79.98,290.79,212.17,446.19Z"/></clipPath><linearGradient id="linear-gradient-12" x1="1233.24" y1="274.76" x2="1110.84" y2="1234.33" gradientUnits="userSpaceOnUse"><stop offset="0" stop-color="#db2355" stop-opacity="0"/><stop offset=".45" stop-color="#db2355"/><stop offset=".81" stop-color="#bf1f58"/><stop offset="1" stop-color="#8a1652"/></linearGradient><linearGradient id="linear-gradient-13" x1="612.62" y1="645.26" x2="1278.43" y2="-35.37" gradientUnits="userSpaceOnUse"><stop offset="0" stop-color="#f14f00"/><stop offset=".32" stop-color="#fa9f03"/><stop offset=".73" stop-color="#f14f00"/><stop offset="1" stop-color="#ed0b5b"/></linearGradient><clipPath id="clippath-2"><path class="cls-6" d="M659.91,1.13c25.19,122.72,80.85,265.71,214.63,363.1,139,101.18,307,163.91,405.16,194.86V1.13h-619.79Z"/></clipPath><linearGradient id="linear-gradient-14" x1="887.82" y1="378.32" x2="447.24" y2="-693.77" gradientUnits="userSpaceOnUse"><stop offset="0" stop-color="#fdea49"/><stop offset=".07" stop-color="#fce647" stop-opacity=".98"/><stop offset=".18" stop-color="#fcde42" stop-opacity=".91"/><stop offset=".32" stop-color="#fcd03a" stop-opacity=".81"/><stop offset=".46" stop-color="#fbbc30" stop-opacity=".67"/><stop offset=".53" stop-color="#fbb32b" stop-opacity=".6"/><stop offset=".82" stop-color="#f58921" stop-opacity=".28"/><stop offset="1" stop-color="#f16622" stop-opacity="0"/></linearGradient><linearGradient id="linear-gradient-15" x1="564.14" y1="983.23" x2="1412.82" y2="200.6" gradientUnits="userSpaceOnUse"><stop offset=".11" stop-color="#f14f00"/><stop offset=".25" stop-color="#f15300"/><stop offset=".42" stop-color="#f26100"/><stop offset=".59" stop-color="#f57800"/><stop offset=".62" stop-color="#f67e00"/></linearGradient><clipPath id="clippath-3"><path class="cls-6" d="M1058.42,346.81c-90.58,46.45-174.19,117.68-248.52,215.23-74.32,97.55-142.73,197.26-158.71,246.97-13.94,43.35,3.09,99.98,75.25,94.87,70.6-5,107.61-45.68,171.87-134.71,69.44-96.21,104.52-127.74,204.39-178.84,42.9-21.95,129.31-37.61,177.01-54.04V205.15c-88.7,62.29-150.77,105.5-221.29,141.66Z"/></clipPath><linearGradient id="linear-gradient-16" x1="1366.32" y1="120.28" x2="700.74" y2="920.63" gradientTransform="translate(84.37 -114.59) rotate(7)" gradientUnits="userSpaceOnUse"><stop offset=".13" stop-color="#db2355" stop-opacity="0"/><stop offset=".45" stop-color="#db2355"/><stop offset=".76" stop-color="#bf1f58"/><stop offset="1" stop-color="#8a1652"/></linearGradient></defs><g id="Layer_4"><g id="Layer_6"><path class="cls-20" d="M454.53,23.22C435.91,8.19,412.71,0,388.78,0H53C24.93,0,2.17,22.76,2.17,50.83L0,689.15c-.06,17.53,5.5,34.63,15.87,48.77l32.14,45.35L497.34,61.73l-42.81-38.51Z"/><rect class="cls-3" x="37.62" y="46.63" width="474.49" height="756.92" rx="34.84" ry="34.84"/><path class="cls-9" d="M433.5,155.55s53.01,110.14,49.71,259.84c-3.39,153.64-51.97,284.69-51.97,284.69l-311.05-1.13.38-546.79,312.94,3.39Z"/><g class="cls-22"><path class="cls-7" d="M214.6,152.57s83.33,95.62,76.55,263.95c-6.78,168.33-81.36,283.56-81.36,283.56h151.4s63.27-141.22,66.65-281.3c3.8-157.05-63.21-265.43-63.21-265.43l-150.04-.78Z"/><path class="cls-11" d="M180.28,149.22s91.95,99.91,85.17,268.24c-6.78,168.33-87.77,286.56-87.77,286.56l157.81-3s63.27-141.22,66.65-281.3c3.8-157.05-67.96-270.5-67.96-270.5h-153.91Z"/></g><path class="cls-17" d="M120.56,152.16l-.38,546.79s84.88-97.13,88.12-272.27c3.39-183.02-87.74-274.53-87.74-274.53Z"/><path class="cls-15" d="M120.56,249.41s44.76,73.71,44.06,176.14c-.75,110.71-44.44,174.73-44.44,174.73l.38-350.88Z"/><path class="cls-12" d="M433.5,155.55s53.01,110.14,49.71,259.84c-3.39,153.64-51.97,284.69-51.97,284.69l-311.05-1.13.38-546.79,312.94,3.39Z"/><path class="cls-21" d="M433.5,155.55s53.01,110.14,49.71,259.84c-3.39,153.64-51.97,284.69-51.97,284.69l-311.05-1.13.38-546.79,312.94,3.39Z"/><path class="cls-4" d="M284.78,648.28c-32.5-31.91-32.99-84.12-1.08-116.63s84.12-32.99,116.63-1.08l373.89,318.17-166.01,129.66-323.42-330.12Z"/><circle class="cls-8" cx="738.06" cy="986.57" r="230.47"/><circle class="cls-14" cx="738.06" cy="986.57" r="230.47"/></g><g id="Layer_3"><path class="cls-16" d="M879.19,448.62c171.87,202.06,186.46,320.62,190.99,415.77,4.65,97.55-9.29,146.32-34.84,211.35-17.09,43.5-67.61,159.91,71.46,150.94,72-4.65,125.42-69.68,148.65-195.1,23.23-125.42,25.03-420.39,23.48-609.29-.78-95.17-51.23-277.25-95.77-419.87h-516.14c28.4,136.07,79.98,290.79,212.17,446.19Z"/><g class="cls-10"><path class="cls-5" d="M946.55,525.26s72,72,90.58,99.87c18.58,27.87,34.84,55.74,34.84,55.74,0,0,13.94-72,11.61-139.35-2.32-67.35-4.65-111.48-4.65-111.48,0,0,55.74,81.29,78.97,134.71,23.23,53.42,32.52,95.23,32.52,95.23,0,0,51.74-89.42,68-152.13,16.26-62.71,72.77-157.94,72.77-157.94l54.32,728.13-306.58,288-222.97-69.68,90.58-771.1Z"/></g><path class="cls-2" d="M659.91,1.13c25.19,122.72,80.85,265.71,214.63,363.1,139,101.18,307,163.91,405.16,194.86V1.13h-619.79Z"/><g class="cls-18"><path class="cls-23" d="M756.87-227.25s17.18,228.76,54.19,370.06c34.06,130.06,94.45,247.74,317.42,368.52,222.97,120.77-312.77,182.71-312.77,182.71l-236.9-534.19-55.74-393.29,233.81,6.19Z"/></g><path class="cls-1" d="M1058.42,346.81c-90.58,46.45-174.19,117.68-248.52,215.23-74.32,97.55-142.73,197.26-158.71,246.97-13.94,43.35,3.09,99.98,75.25,94.87,70.6-5,107.61-45.68,171.87-134.71,69.44-96.21,104.52-127.74,204.39-178.84,42.9-21.95,129.31-37.61,177.01-54.04V205.15c-88.7,62.29-150.77,105.5-221.29,141.66Z"/><g class="cls-13"><path class="cls-19" d="M1210.32,288.75s-73.79,67.39-95.63,92.79c-21.84,25.4-34.86,42.52-34.86,42.52,0,0,84.03-31.9,132.02-41.61,47.99-9.71,101.98-9.24,101.98-9.24,0,0-63.84,49.89-88.37,71.84-24.53,21.95-68.4,74.29-68.4,74.29,0,0,16.07-5.55,65.63-6.82,60.39-1.55,119.23,20.13,119.23,20.13,0,0-101.91,17.57-135.84,46.16-48.67,41.02-158.17,334.29-158.17,334.29l-278.73,59.4-168.94-117.79,73.36-361.94c178.24-93.62,356.94-169.74,536.71-204.02Z"/></g></g></g></svg>